<svg width="60" height="60" viewBox="0 0 60 60" fill="none" xmlns="http://www.w3.org/2000/svg">
<path d="M30 10C18.9525 10 10 18.955 10 30C10 41.045 18.9525 50 30 50C41.0475 50 50 41.045 50 30C50 18.955 41.0475 10 30 10ZM39.2675 35.7325C39.7363 36.2013 39.9996 36.8371 39.9996 37.5C39.9996 38.1629 39.7363 38.7987 39.2675 39.2675C38.7987 39.7363 38.1629 39.9996 37.5 39.9996C36.8371 39.9996 36.2013 39.7363 35.7325 39.2675L30 33.535L24.2675 39.2675C24.0359 39.5005 23.7605 39.6853 23.4571 39.8115C23.1538 39.9376 22.8285 40.0026 22.5 40.0026C22.1715 40.0026 21.8462 39.9376 21.5429 39.8115C21.2395 39.6853 20.9641 39.5005 20.7325 39.2675C20.5001 39.0355 20.3158 38.76 20.19 38.4567C20.0642 38.1534 19.9995 37.8283 19.9995 37.5C19.9995 37.1717 20.0642 36.8466 20.19 36.5433C20.3158 36.24 20.5001 35.9645 20.7325 35.7325L26.465 30L20.7325 24.2675C20.2637 23.7987 20.0004 23.1629 20.0004 22.5C20.0004 21.8371 20.2637 21.2013 20.7325 20.7325C21.2013 20.2637 21.8371 20.0004 22.5 20.0004C23.1629 20.0004 23.7987 20.2637 24.2675 20.7325L30 26.465L35.7325 20.7325C36.2013 20.2637 36.8371 20.0004 37.5 20.0004C38.1629 20.0004 38.7987 20.2637 39.2675 20.7325C39.7363 21.2013 39.9996 21.8371 39.9996 22.5C39.9996 23.1629 39.7363 23.7987 39.2675 24.2675L33.535 30L39.2675 35.7325Z" fill="white"/>
</svg>
