<svg width="46" height="46" viewBox="0 0 46 46" fill="none" xmlns="http://www.w3.org/2000/svg">
<path d="M36.4166 34.5H9.58329C8.52475 34.5 7.66663 35.3581 7.66663 36.4167C7.66663 37.4752 8.52475 38.3333 9.58329 38.3333H36.4166C37.4752 38.3333 38.3333 37.4752 38.3333 36.4167C38.3333 35.3581 37.4752 34.5 36.4166 34.5Z" fill="white"/>
<path d="M7.66663 32.5833V36.4166C7.66663 37.4751 8.52475 38.3333 9.58329 38.3333C10.6418 38.3333 11.5 37.4751 11.5 36.4166V32.5833C11.5 31.5247 10.6418 30.6666 9.58329 30.6666C8.52475 30.6666 7.66663 31.5247 7.66663 32.5833Z" fill="white"/>
<path d="M34.5 32.5833V36.4166C34.5 37.4751 35.3581 38.3333 36.4167 38.3333C37.4752 38.3333 38.3333 37.4751 38.3333 36.4166V32.5833C38.3333 31.5247 37.4752 30.6666 36.4167 30.6666C35.3581 30.6666 34.5 31.5247 34.5 32.5833Z" fill="white"/>
<path d="M23 28.7501C22.6026 28.7531 22.2142 28.6325 21.8883 28.4051L14.2217 23.0001C13.8084 22.707 13.5281 22.2622 13.4419 21.7629C13.3557 21.2637 13.4707 20.7506 13.7617 20.3359C13.9069 20.1286 14.0918 19.9522 14.3056 19.8167C14.5194 19.6813 14.758 19.5895 15.0075 19.5467C15.2569 19.504 15.5124 19.511 15.7592 19.5675C16.0059 19.624 16.239 19.7288 16.445 19.8759L23 24.4568L29.5167 19.5501C29.9233 19.2451 30.4345 19.1141 30.9377 19.186C31.4409 19.2579 31.895 19.5268 32.2 19.9334C32.505 20.3401 32.6359 20.8513 32.5641 21.3545C32.4922 21.8577 32.2233 22.3118 31.8167 22.6168L24.15 28.3668C23.8182 28.6156 23.4147 28.7501 23 28.7501Z" fill="white"/>
<path d="M23 24.9167C22.4917 24.9167 22.0042 24.7147 21.6448 24.3553C21.2853 23.9958 21.0834 23.5083 21.0834 23V7.66667C21.0834 7.15834 21.2853 6.67082 21.6448 6.31138C22.0042 5.95193 22.4917 5.75 23 5.75C23.5084 5.75 23.9959 5.95193 24.3553 6.31138C24.7148 6.67082 24.9167 7.15834 24.9167 7.66667V23C24.9167 23.5083 24.7148 23.9958 24.3553 24.3553C23.9959 24.7147 23.5084 24.9167 23 24.9167Z" fill="white"/>
</svg>
