<svg width="55" height="65" viewBox="0 0 55 65" fill="none" xmlns="http://www.w3.org/2000/svg">
<path fill-rule="evenodd" clip-rule="evenodd" d="M0.734349 0.73435C0.96654 0.501572 1.24237 0.316887 1.54605 0.190876C1.84973 0.0648637 2.17528 0 2.50406 0C2.83285 0 3.1584 0.0648637 3.46207 0.190876C3.76575 0.316887 4.04158 0.501572 4.27378 0.73435L34.2689 30.7295C34.5017 30.9617 34.6864 31.2375 34.8124 31.5412C34.9384 31.8449 35.0032 32.1704 35.0032 32.4992C35.0032 32.828 34.9384 33.1535 34.8124 33.4572C34.6864 33.7609 34.5017 34.0367 34.2689 34.2689L4.27378 64.264C3.80442 64.7334 3.16783 64.9971 2.50406 64.9971C1.84029 64.9971 1.20371 64.7334 0.734349 64.264C0.264992 63.7947 0.00131109 63.1581 0.00131109 62.4943C0.00131109 61.8305 0.264992 61.194 0.734349 60.7246L28.9648 32.4992L0.734349 4.27378C0.501571 4.04158 0.316887 3.76575 0.190876 3.46207C0.0648637 3.1584 0 2.83285 0 2.50406C0 2.17528 0.0648637 1.84973 0.190876 1.54605C0.316887 1.24237 0.501571 0.966541 0.734349 0.73435Z" fill="#D5BEC6"/>
<path fill-rule="evenodd" clip-rule="evenodd" d="M20.7309 0.73435C20.9631 0.501572 21.239 0.316887 21.5426 0.190876C21.8463 0.0648637 22.1719 0 22.5006 0C22.8294 0 23.155 0.0648637 23.4587 0.190876C23.7623 0.316887 24.0382 0.501572 24.2704 0.73435L54.2655 30.7295C54.4983 30.9617 54.6829 31.2375 54.809 31.5412C54.935 31.8449 54.9998 32.1704 54.9998 32.4992C54.9998 32.828 54.935 33.1535 54.809 33.4572C54.6829 33.7609 54.4983 34.0367 54.2655 34.2689L24.2704 64.264C23.801 64.7334 23.1644 64.9971 22.5006 64.9971C21.8369 64.9971 21.2003 64.7334 20.7309 64.264C20.2616 63.7947 19.9979 63.1581 19.9979 62.4943C19.9979 61.8305 20.2616 61.194 20.7309 60.7246L48.9613 32.4992L20.7309 4.27378C20.4982 4.04158 20.3135 3.76575 20.1875 3.46207C20.0614 3.1584 19.9966 2.83285 19.9966 2.50406C19.9966 2.17528 20.0614 1.84973 20.1875 1.54605C20.3135 1.24237 20.4982 0.966541 20.7309 0.73435Z" fill="#D5BEC6"/>
</svg>
