<svg width="55" height="65" viewBox="0 0 55 65" fill="none" xmlns="http://www.w3.org/2000/svg">
<path fill-rule="evenodd" clip-rule="evenodd" d="M54.2657 64.2627C54.0335 64.4955 53.7576 64.6802 53.454 64.8062C53.1503 64.9322 52.8247 64.9971 52.4959 64.9971C52.1672 64.9971 51.8416 64.9322 51.5379 64.8062C51.2342 64.6802 50.9584 64.4955 50.7262 64.2627L20.7311 34.2676C20.4983 34.0354 20.3136 33.7596 20.1876 33.4559C20.0616 33.1522 19.9968 32.8267 19.9968 32.4979C19.9968 32.1691 20.0616 31.8436 20.1876 31.5399C20.3136 31.2362 20.4983 30.9604 20.7311 30.7282L50.7262 0.733047C51.1956 0.26369 51.8322 9.82212e-06 52.4959 9.82212e-06C53.1597 9.82212e-06 53.7963 0.26369 54.2657 0.733047C54.735 1.2024 54.9987 1.83899 54.9987 2.50276C54.9987 3.16653 54.735 3.80312 54.2657 4.27247L26.0352 32.4979L54.2657 60.7233C54.4984 60.9555 54.6831 61.2313 54.8091 61.535C54.9351 61.8387 55 62.1642 55 62.493C55 62.8218 54.9351 63.1473 54.8091 63.451C54.6831 63.7547 54.4984 64.0305 54.2657 64.2627V64.2627Z" fill="#D5BEC6"/>
<path fill-rule="evenodd" clip-rule="evenodd" d="M34.2691 64.2627C34.0369 64.4955 33.761 64.6802 33.4574 64.8062C33.1537 64.9322 32.8281 64.9971 32.4994 64.9971C32.1706 64.9971 31.845 64.9322 31.5413 64.8062C31.2377 64.6802 30.9618 64.4955 30.7296 64.2627L0.734519 34.2676C0.501741 34.0354 0.317058 33.7596 0.191047 33.4559C0.0650349 33.1522 0.000171206 32.8267 0.000171206 32.4979C0.000171206 32.1691 0.0650349 31.8436 0.191047 31.5399C0.317058 31.2362 0.501741 30.9604 0.734519 30.7282L30.7296 0.733047C31.199 0.26369 31.8356 9.81717e-06 32.4994 9.82212e-06C33.1631 9.82706e-06 33.7997 0.26369 34.2691 0.733047C34.7384 1.2024 35.0021 1.83899 35.0021 2.50276C35.0021 3.16653 34.7384 3.80312 34.2691 4.27247L6.03866 32.4979L34.2691 60.7233C34.5018 60.9555 34.6865 61.2313 34.8125 61.535C34.9386 61.8387 35.0034 62.1642 35.0034 62.493C35.0034 62.8218 34.9386 63.1473 34.8125 63.451C34.6865 63.7547 34.5018 64.0305 34.2691 64.2627V64.2627Z" fill="#D5BEC6"/>
</svg>
