<svg width="31" height="31" viewBox="0 0 31 31" fill="none" xmlns="http://www.w3.org/2000/svg">
<g clip-path="url(#clip0_383_11)">
<path d="M21.3123 4.84338C21.3121 3.70691 21.7116 2.60657 22.4408 1.73488C23.17 0.863188 24.1825 0.275655 25.3011 0.0750725C26.4198 -0.12551 27.5733 0.0736315 28.5599 0.637655C29.5466 1.20168 30.3035 2.09467 30.6982 3.16039C31.093 4.22611 31.1004 5.39669 30.7192 6.46734C30.3381 7.53799 29.5926 8.44052 28.6132 9.01703C27.6338 9.59355 26.4829 9.80733 25.3618 9.62097C24.2407 9.43461 23.2208 8.85999 22.4806 7.99763L9.46447 14.0426C9.7637 14.9909 9.7637 16.0083 9.46447 16.9566L22.4806 23.0016C23.263 22.0916 24.3554 21.5045 25.5461 21.3541C26.7367 21.2036 27.9409 21.5005 28.9251 22.1873C29.9093 22.874 30.6035 23.9017 30.8732 25.0711C31.1429 26.2405 30.9688 27.4685 30.3848 28.5169C29.8008 29.5653 28.8483 30.3596 27.712 30.7457C26.5757 31.1319 25.3365 31.0825 24.2346 30.6071C23.1326 30.1317 22.2464 29.2642 21.7477 28.1726C21.2489 27.081 21.1732 25.8431 21.5351 24.6989L8.51897 18.6539C7.87462 19.4048 7.01576 19.9404 6.05792 20.1885C5.10007 20.4367 4.08919 20.3856 3.16127 20.0421C2.23335 19.6985 1.4329 19.079 0.867602 18.2669C0.302301 17.4548 -0.000732422 16.4891 -0.000732422 15.4996C-0.000732422 14.5102 0.302301 13.5444 0.867602 12.7323C1.4329 11.9202 2.23335 11.3007 3.16127 10.9572C4.08919 10.6137 5.10007 10.5625 6.05792 10.8107C7.01576 11.0589 7.87462 11.5945 8.51897 12.3454L21.5351 6.30038C21.3869 5.82893 21.3118 5.33757 21.3123 4.84338Z" fill="white"/>
</g>
<defs>
<clipPath id="clip0_383_11">
<rect width="31" height="31" fill="white"/>
</clipPath>
</defs>
</svg>
