<svg width="34" height="38" viewBox="0 0 34 38" fill="none" xmlns="http://www.w3.org/2000/svg">
<path d="M16.9998 18.6667C21.7421 18.6667 25.5865 14.9357 25.5865 10.3333C25.5865 5.73096 21.7421 2 16.9998 2C12.2575 2 8.41309 5.73096 8.41309 10.3333C8.41309 14.9357 12.2575 18.6667 16.9998 18.6667Z" stroke="#FDDDC8" stroke-width="4"/>
<path d="M25.5867 22H26.1912C27.4467 22.0003 28.6589 22.4456 29.6 23.2521C30.5411 24.0587 31.1463 25.1709 31.302 26.38L31.9735 31.5867C32.0339 32.0557 31.9908 32.5319 31.8471 32.9835C31.7034 33.4352 31.4623 33.852 31.1399 34.2063C30.8175 34.5607 30.4212 34.8444 29.9772 35.0387C29.5332 35.233 29.0516 35.3334 28.5646 35.3333H5.43543C4.94836 35.3334 4.46684 35.233 4.02282 35.0387C3.57881 34.8444 3.18245 34.5607 2.86006 34.2063C2.53767 33.852 2.29662 33.4352 2.15291 32.9835C2.0092 32.5319 1.96611 32.0557 2.02651 31.5867L2.69627 26.38C2.85203 25.1704 3.45777 24.0576 4.39958 23.251C5.3414 22.4444 6.55441 21.9995 7.81051 22H8.4133" stroke="#FDDDC8" stroke-width="4" stroke-linecap="round" stroke-linejoin="round"/>
</svg>
